<svg xmlns="http://www.w3.org/2000/svg" xmlns:xlink="http://www.w3.org/1999/xlink" width="500" zoomAndPan="magnify" viewBox="0 0 375 374.999991" height="500" preserveAspectRatio="xMidYMid meet" version="1.0"><defs><g/><clipPath id="ea58d1a1f5"><path d="M 132 189 L 293 189 L 293 287 L 132 287 Z M 132 189 " clip-rule="nonzero"/></clipPath><clipPath id="b5d3aa15d9"><path d="M 123.878906 220.460938 L 292.246094 186.546875 L 308.242188 265.953125 L 139.871094 299.867188 Z M 123.878906 220.460938 " clip-rule="nonzero"/></clipPath><clipPath id="99b089dc20"><path d="M 123.878906 220.460938 L 292.246094 186.546875 L 308.242188 265.953125 L 139.871094 299.867188 Z M 123.878906 220.460938 " clip-rule="nonzero"/></clipPath><clipPath id="393fc06a44"><path d="M 104 97 L 197 97 L 197 261 L 104 261 Z M 104 97 " clip-rule="nonzero"/></clipPath><clipPath id="6a6cb99f7a"><path d="M 230.722656 120.339844 L 134.820312 262.820312 L 67.625 217.589844 L 163.527344 75.109375 Z M 230.722656 120.339844 " clip-rule="nonzero"/></clipPath><clipPath id="0813b96a05"><path d="M 230.722656 120.339844 L 134.820312 262.820312 L 67.625 217.589844 L 163.527344 75.109375 Z M 230.722656 120.339844 " clip-rule="nonzero"/></clipPath><clipPath id="79a388ca39"><path d="M 103 97 L 197 97 L 197 261 L 103 261 Z M 103 97 " clip-rule="nonzero"/></clipPath><clipPath id="5c9af2cfa9"><path d="M 230.722656 120.339844 L 134.820312 262.820312 L 67.625 217.589844 L 163.527344 75.109375 Z M 230.722656 120.339844 " clip-rule="nonzero"/></clipPath><clipPath id="771aec82a2"><path d="M 230.722656 120.339844 L 134.820312 262.820312 L 67.625 217.589844 L 163.527344 75.109375 Z M 230.722656 120.339844 " clip-rule="nonzero"/></clipPath><clipPath id="0c35eeaa7c"><path d="M 110 97 L 287 97 L 287 165 L 110 165 Z M 110 97 " clip-rule="nonzero"/></clipPath><clipPath id="20e2a32b76"><path d="M 278.6875 193.058594 L 109.773438 161.988281 L 124.425781 82.324219 L 293.34375 113.394531 Z M 278.6875 193.058594 " clip-rule="nonzero"/></clipPath><clipPath id="6ead31a0d2"><path d="M 278.6875 193.058594 L 109.773438 161.988281 L 124.425781 82.324219 L 293.34375 113.394531 Z M 278.6875 193.058594 " clip-rule="nonzero"/></clipPath><clipPath id="94a9bd3bd8"><path d="M 1 0 L 373 0 L 373 373 L 1 373 Z M 1 0 " clip-rule="nonzero"/></clipPath><clipPath id="174d62d15f"><path d="M 6.917969 -4.332031 L 378.773438 6.011719 L 368.429688 377.867188 L -3.425781 367.523438 Z M 6.917969 -4.332031 " clip-rule="nonzero"/></clipPath><clipPath id="12e84928be"><path d="M 6.917969 -4.332031 L 378.773438 6.011719 L 368.429688 377.867188 L -3.425781 367.523438 Z M 6.917969 -4.332031 " clip-rule="nonzero"/></clipPath><clipPath id="5d67e08671"><path d="M 175.585938 1.175781 L 200.859375 1.175781 L 200.859375 114.746094 L 175.585938 114.746094 Z M 175.585938 1.175781 " clip-rule="nonzero"/></clipPath><clipPath id="b7705b45f1"><path d="M 0.585938 0.175781 L 25.859375 0.175781 L 25.859375 113.746094 L 0.585938 113.746094 Z M 0.585938 0.175781 " clip-rule="nonzero"/></clipPath><clipPath id="7ed59ff478"><rect x="0" width="26" y="0" height="114"/></clipPath><clipPath id="823838acbb"><path d="M 276.664062 184.730469 L 373.257812 184.730469 L 373.257812 197.351562 L 276.664062 197.351562 Z M 276.664062 184.730469 " clip-rule="nonzero"/></clipPath><clipPath id="2d9a7522b9"><path d="M 0.664062 0.730469 L 97.257812 0.730469 L 97.257812 13.351562 L 0.664062 13.351562 Z M 0.664062 0.730469 " clip-rule="nonzero"/></clipPath><clipPath id="0cf27eb1fd"><rect x="0" width="98" y="0" height="14"/></clipPath></defs><g clip-path="url(#ea58d1a1f5)"><g clip-path="url(#b5d3aa15d9)"><g clip-path="url(#99b089dc20)"><path fill="#af8d1e" d="M 215.757812 284.441406 C 204.785156 286.652344 193.582031 286.898438 182.382812 285.175781 C 163.519531 282.273438 146.15625 273.929688 132.175781 261.039062 L 142.753906 249.5625 C 154.445312 260.339844 168.96875 267.320312 184.757812 269.75 C 195.433594 271.394531 206.109375 270.894531 216.488281 268.273438 C 226.519531 265.742188 235.851562 261.339844 244.234375 255.191406 C 252.617188 249.046875 259.621094 241.464844 265.054688 232.664062 C 270.675781 223.554688 274.359375 213.519531 276 202.839844 C 276.664062 198.523438 276.980469 194.140625 276.941406 189.8125 L 292.546875 189.667969 C 292.597656 194.835938 292.21875 200.066406 291.429688 205.214844 C 289.464844 217.96875 285.0625 229.960938 278.335938 240.859375 C 271.847656 251.382812 263.476562 260.4375 253.464844 267.78125 C 243.453125 275.121094 232.300781 280.378906 220.3125 283.40625 C 218.800781 283.789062 217.28125 284.136719 215.757812 284.441406 Z M 215.757812 284.441406 " fill-opacity="1" fill-rule="nonzero"/><path fill="#af8d1e" d="M 215.78125 284.558594 C 204.804688 286.769531 193.558594 287.019531 182.363281 285.296875 C 163.476562 282.390625 146.09375 274.03125 132.09375 261.128906 C 132.070312 261.109375 132.054688 261.078125 132.054688 261.046875 C 132.054688 261.015625 132.0625 260.984375 132.085938 260.960938 L 142.664062 249.480469 C 142.710938 249.433594 142.785156 249.429688 142.835938 249.476562 C 154.507812 260.234375 169.011719 267.207031 184.773438 269.632812 C 195.4375 271.273438 206.097656 270.777344 216.460938 268.15625 C 226.472656 265.628906 235.792969 261.234375 244.164062 255.097656 C 252.535156 248.957031 259.527344 241.390625 264.953125 232.601562 C 270.5625 223.503906 274.242188 213.484375 275.882812 202.824219 C 276.546875 198.511719 276.859375 194.136719 276.820312 189.816406 C 276.820312 189.75 276.871094 189.695312 276.941406 189.695312 L 292.546875 189.546875 C 292.578125 189.546875 292.609375 189.558594 292.632812 189.582031 C 292.65625 189.601562 292.667969 189.632812 292.667969 189.664062 C 292.71875 194.839844 292.339844 200.078125 291.546875 205.234375 C 289.582031 218.003906 285.171875 230.011719 278.441406 240.921875 C 271.941406 251.457031 263.5625 260.527344 253.535156 267.875 C 243.511719 275.226562 232.34375 280.492188 220.34375 283.523438 C 218.835938 283.90625 217.300781 284.253906 215.78125 284.558594 Z M 132.34375 261.035156 C 146.292969 273.859375 163.601562 282.164062 182.402344 285.058594 C 193.570312 286.777344 204.785156 286.527344 215.734375 284.324219 C 217.25 284.019531 218.78125 283.671875 220.285156 283.289062 C 232.253906 280.265625 243.394531 275.015625 253.394531 267.683594 C 263.394531 260.351562 271.75 251.304688 278.234375 240.796875 C 284.949219 229.914062 289.347656 217.933594 291.308594 205.195312 C 292.09375 200.09375 292.472656 194.910156 292.429688 189.789062 L 277.0625 189.933594 C 277.097656 194.226562 276.777344 198.578125 276.121094 202.859375 C 274.472656 213.554688 270.785156 223.601562 265.15625 232.726562 C 259.71875 241.542969 252.703125 249.132812 244.308594 255.289062 C 235.914062 261.445312 226.5625 265.855469 216.519531 268.390625 C 206.125 271.015625 195.433594 271.515625 184.738281 269.867188 C 168.96875 267.441406 154.453125 260.480469 142.761719 249.734375 Z M 132.34375 261.035156 " fill-opacity="1" fill-rule="nonzero"/></g></g></g><g clip-path="url(#393fc06a44)"><g clip-path="url(#6a6cb99f7a)"><g clip-path="url(#0813b96a05)"><path fill="#af8d1e" d="M 120.398438 139.425781 C 126.648438 130.140625 134.441406 122.085938 143.621094 115.441406 C 159.078125 104.242188 177.292969 97.972656 196.296875 97.308594 L 196.839844 112.910156 C 180.949219 113.464844 165.710938 118.710938 152.777344 128.082031 C 144.027344 134.417969 136.78125 142.277344 131.242188 151.4375 C 125.894531 160.289062 122.347656 169.980469 120.707031 180.246094 C 119.066406 190.511719 119.414062 200.824219 121.738281 210.90625 C 124.144531 221.335938 128.578125 231.058594 134.917969 239.808594 C 137.480469 243.347656 140.335938 246.6875 143.40625 249.734375 L 132.410156 260.8125 C 128.742188 257.171875 125.332031 253.183594 122.277344 248.964844 C 114.707031 238.515625 109.410156 226.890625 106.53125 214.414062 C 103.75 202.367188 103.335938 190.042969 105.292969 177.78125 C 107.253906 165.523438 111.492188 153.941406 117.886719 143.363281 C 118.695312 142.027344 119.53125 140.714844 120.398438 139.425781 Z M 120.398438 139.425781 " fill-opacity="1" fill-rule="nonzero"/></g></g></g><g clip-path="url(#79a388ca39)"><g clip-path="url(#5c9af2cfa9)"><g clip-path="url(#771aec82a2)"><path fill="#af8d1e" d="M 120.300781 139.359375 C 126.554688 130.066406 134.375 121.988281 143.550781 115.34375 C 159.027344 104.132812 177.265625 97.855469 196.292969 97.191406 C 196.324219 97.1875 196.355469 97.199219 196.378906 97.222656 C 196.402344 97.242188 196.414062 97.273438 196.414062 97.304688 L 196.960938 112.90625 C 196.960938 112.972656 196.910156 113.027344 196.84375 113.03125 C 180.976562 113.582031 165.761719 118.820312 152.847656 128.175781 C 144.109375 134.503906 136.878906 142.351562 131.347656 151.5 C 126.003906 160.339844 122.464844 170.015625 120.824219 180.265625 C 119.1875 190.515625 119.535156 200.8125 121.855469 210.878906 C 124.257812 221.292969 128.6875 231.003906 135.015625 239.738281 C 137.574219 243.269531 140.425781 246.605469 143.492188 249.648438 C 143.539062 249.695312 143.539062 249.773438 143.492188 249.820312 L 132.496094 260.898438 C 132.472656 260.917969 132.441406 260.933594 132.410156 260.933594 C 132.378906 260.933594 132.347656 260.921875 132.324219 260.898438 C 128.652344 257.25 125.238281 253.261719 122.179688 249.039062 C 114.601562 238.574219 109.296875 226.933594 106.414062 214.441406 C 103.628906 202.378906 103.214844 190.039062 105.175781 177.765625 C 107.136719 165.488281 111.378906 153.894531 117.785156 143.300781 C 118.589844 141.96875 119.433594 140.644531 120.300781 139.359375 Z M 196.179688 97.433594 C 177.242188 98.121094 159.09375 104.378906 143.691406 115.539062 C 134.539062 122.167969 126.738281 130.226562 120.5 139.492188 C 119.636719 140.773438 118.792969 142.097656 117.988281 143.425781 C 111.601562 153.992188 107.371094 165.558594 105.414062 177.800781 C 103.457031 190.046875 103.871094 202.355469 106.648438 214.386719 C 109.523438 226.847656 114.8125 238.457031 122.375 248.894531 C 125.402344 253.078125 128.777344 257.027344 132.410156 260.640625 L 143.238281 249.734375 C 140.195312 246.703125 137.363281 243.390625 134.820312 239.882812 C 128.472656 231.117188 124.03125 221.378906 121.621094 210.933594 C 119.292969 200.835938 118.945312 190.507812 120.589844 180.226562 C 122.230469 169.949219 125.78125 160.242188 131.140625 151.375 C 136.6875 142.199219 143.945312 134.332031 152.707031 127.984375 C 165.628906 118.621094 180.84375 113.371094 196.714844 112.792969 Z M 196.179688 97.433594 " fill-opacity="1" fill-rule="nonzero"/></g></g></g><g clip-path="url(#0c35eeaa7c)"><g clip-path="url(#20e2a32b76)"><g clip-path="url(#6ead31a0d2)"><path fill="#af8d1e" d="M 217.160156 99.519531 C 228.164062 101.542969 238.660156 105.476562 248.417969 111.238281 C 264.855469 120.941406 277.871094 135.140625 286.0625 152.300781 L 271.980469 159.027344 C 265.128906 144.675781 254.238281 132.800781 240.480469 124.679688 C 231.179688 119.183594 221.082031 115.679688 210.472656 114.257812 C 200.21875 112.882812 189.917969 113.5 179.851562 116.09375 C 169.785156 118.6875 160.464844 123.121094 152.152344 129.277344 C 143.550781 135.644531 136.402344 143.589844 130.910156 152.894531 C 128.6875 156.65625 126.765625 160.609375 125.195312 164.640625 L 110.652344 158.976562 C 112.527344 154.160156 114.820312 149.445312 117.46875 144.960938 C 124.03125 133.847656 132.574219 124.351562 142.867188 116.730469 C 152.800781 109.375 163.9375 104.074219 175.960938 100.976562 C 187.980469 97.882812 200.292969 97.144531 212.546875 98.789062 C 214.09375 98.996094 215.632812 99.238281 217.160156 99.519531 Z M 217.160156 99.519531 " fill-opacity="1" fill-rule="nonzero"/><path fill="#af8d1e" d="M 217.179688 99.402344 C 228.195312 101.429688 238.726562 105.375 248.480469 111.136719 C 264.9375 120.851562 277.96875 135.070312 286.171875 152.25 C 286.1875 152.277344 286.1875 152.3125 286.179688 152.339844 C 286.167969 152.371094 286.144531 152.394531 286.117188 152.410156 L 272.03125 159.136719 C 271.96875 159.164062 271.898438 159.136719 271.871094 159.078125 C 265.03125 144.75 254.15625 132.890625 240.421875 124.78125 C 231.132812 119.296875 221.050781 115.796875 210.457031 114.375 C 200.21875 113.003906 189.933594 113.621094 179.882812 116.210938 C 169.832031 118.796875 160.527344 123.226562 152.226562 129.371094 C 143.636719 135.730469 136.5 143.667969 131.011719 152.957031 C 128.796875 156.710938 126.878906 160.65625 125.308594 164.683594 C 125.285156 164.746094 125.214844 164.777344 125.152344 164.753906 L 110.609375 159.089844 C 110.578125 159.078125 110.554688 159.054688 110.542969 159.027344 C 110.527344 158.996094 110.527344 158.964844 110.539062 158.933594 C 112.417969 154.113281 114.714844 149.390625 117.367188 144.898438 C 123.933594 133.773438 132.492188 124.261719 142.792969 116.632812 C 152.742188 109.269531 163.890625 103.960938 175.929688 100.863281 C 187.96875 97.761719 200.292969 97.023438 212.5625 98.667969 C 214.101562 98.875 215.65625 99.121094 217.179688 99.402344 Z M 285.902344 152.246094 C 277.71875 135.15625 264.738281 121.011719 248.355469 111.34375 C 238.625 105.597656 228.121094 101.660156 217.136719 99.636719 C 215.617188 99.359375 214.066406 99.113281 212.53125 98.90625 C 200.289062 97.265625 187.996094 98.003906 175.988281 101.09375 C 163.980469 104.1875 152.863281 109.480469 142.9375 116.828125 C 132.660156 124.4375 124.125 133.921875 117.574219 145.019531 C 114.949219 149.464844 112.671875 154.136719 110.808594 158.910156 L 125.128906 164.484375 C 126.691406 160.484375 128.601562 156.566406 130.804688 152.835938 C 136.308594 143.515625 143.464844 135.558594 152.082031 129.179688 C 160.40625 123.015625 169.742188 118.574219 179.820312 115.976562 C 189.902344 113.382812 200.222656 112.761719 210.488281 114.136719 C 221.113281 115.5625 231.226562 119.074219 240.542969 124.574219 C 254.285156 132.6875 265.171875 144.542969 272.035156 158.867188 Z M 285.902344 152.246094 " fill-opacity="1" fill-rule="nonzero"/></g></g></g><g clip-path="url(#94a9bd3bd8)"><g clip-path="url(#174d62d15f)"><g clip-path="url(#12e84928be)"><path fill="#af8d1e" d="M 181.75 372.441406 C 178.710938 372.355469 175.675781 372.195312 172.640625 371.960938 C 169.609375 371.730469 166.582031 371.421875 163.5625 371.039062 C 160.546875 370.65625 157.539062 370.199219 154.542969 369.671875 C 151.546875 369.140625 148.566406 368.539062 145.601562 367.863281 C 142.636719 367.183594 139.6875 366.4375 136.757812 365.617188 C 133.828125 364.796875 130.921875 363.902344 128.035156 362.9375 C 125.152344 361.976562 122.292969 360.941406 119.457031 359.835938 C 116.621094 358.734375 113.816406 357.558594 111.039062 356.320312 C 108.261719 355.078125 105.515625 353.765625 102.804688 352.390625 C 100.089844 351.015625 97.414062 349.570312 94.773438 348.0625 C 92.128906 346.554688 89.527344 344.984375 86.960938 343.347656 C 84.398438 341.710938 81.875 340.015625 79.390625 338.253906 C 76.910156 336.496094 74.472656 334.675781 72.082031 332.796875 C 69.691406 330.917969 67.34375 328.980469 65.046875 326.984375 C 62.75 324.988281 60.503906 322.941406 58.308594 320.835938 C 56.113281 318.730469 53.96875 316.574219 51.878906 314.363281 C 49.789062 312.152344 47.753906 309.894531 45.773438 307.582031 C 43.792969 305.273438 41.871094 302.917969 40.007812 300.511719 C 38.144531 298.109375 36.339844 295.660156 34.597656 293.164062 C 32.851562 290.671875 31.171875 288.140625 29.554688 285.5625 C 27.933594 282.988281 26.378906 280.375 24.886719 277.722656 C 23.398438 275.070312 21.972656 272.382812 20.613281 269.664062 C 19.253906 266.941406 17.964844 264.1875 16.738281 261.402344 C 15.515625 258.617188 14.359375 255.804688 13.277344 252.960938 C 12.191406 250.121094 11.175781 247.253906 10.230469 244.363281 C 9.285156 241.46875 8.410156 238.558594 7.609375 235.621094 C 6.808594 232.6875 6.078125 229.734375 5.421875 226.765625 C 4.765625 223.792969 4.183594 220.808594 3.671875 217.8125 C 3.160156 214.8125 2.726562 211.800781 2.363281 208.78125 C 2 205.761719 1.710938 202.734375 1.496094 199.699219 C 1.285156 196.664062 1.144531 193.625 1.078125 190.585938 C 1.015625 187.542969 1.023438 184.503906 1.109375 181.460938 C 1.195312 178.421875 1.351562 175.382812 1.585938 172.351562 C 1.820312 169.316406 2.128906 166.292969 2.511719 163.273438 C 2.894531 160.257812 3.347656 157.25 3.878906 154.253906 C 4.410156 151.257812 5.011719 148.277344 5.6875 145.3125 C 6.363281 142.34375 7.113281 139.398438 7.933594 136.46875 C 8.753906 133.539062 9.648438 130.632812 10.609375 127.746094 C 11.574219 124.859375 12.609375 122 13.710938 119.167969 C 14.816406 116.332031 15.988281 113.527344 17.230469 110.75 C 18.472656 107.972656 19.78125 105.226562 21.160156 102.515625 C 22.535156 99.800781 23.976562 97.125 25.484375 94.480469 C 26.992188 91.839844 28.566406 89.234375 30.203125 86.671875 C 31.835938 84.105469 33.535156 81.582031 35.296875 79.101562 C 37.054688 76.621094 38.875 74.183594 40.753906 71.792969 C 42.632812 69.398438 44.570312 67.054688 46.566406 64.757812 C 48.558594 62.460938 50.609375 60.214844 52.714844 58.019531 C 54.820312 55.820312 56.976562 53.679688 59.1875 51.585938 C 61.394531 49.496094 63.65625 47.460938 65.964844 45.484375 C 68.277344 43.503906 70.632812 41.582031 73.039062 39.71875 C 75.441406 37.855469 77.890625 36.050781 80.382812 34.308594 C 82.875 32.5625 85.410156 30.882812 87.984375 29.261719 C 90.5625 27.644531 93.175781 26.089844 95.828125 24.597656 C 98.480469 23.105469 101.164062 21.683594 103.886719 20.324219 C 106.609375 18.964844 109.363281 17.671875 112.148438 16.449219 C 114.933594 15.226562 117.746094 14.070312 120.589844 12.984375 C 123.429688 11.898438 126.296875 10.886719 129.1875 9.941406 C 132.078125 8.996094 134.992188 8.121094 137.925781 7.320312 C 140.863281 6.519531 143.8125 5.789062 146.785156 5.132812 C 149.753906 4.476562 152.738281 3.890625 155.738281 3.382812 C 158.738281 2.871094 161.746094 2.433594 164.769531 2.070312 C 167.789062 1.710938 170.816406 1.421875 173.851562 1.207031 C 176.886719 0.992188 179.921875 0.855469 182.964844 0.789062 C 186.003906 0.726562 189.046875 0.734375 192.085938 0.820312 L 198.476562 0.996094 L 198.121094 13.773438 L 191.734375 13.597656 C 188.902344 13.519531 186.070312 13.507812 183.238281 13.570312 C 180.402344 13.628906 177.574219 13.757812 174.75 13.957031 C 171.921875 14.15625 169.105469 14.425781 166.292969 14.761719 C 163.476562 15.101562 160.675781 15.507812 157.882812 15.980469 C 155.089844 16.457031 152.3125 17 149.542969 17.613281 C 146.777344 18.222656 144.027344 18.902344 141.296875 19.648438 C 138.5625 20.398438 135.851562 21.210938 133.15625 22.089844 C 130.464844 22.96875 127.796875 23.914062 125.148438 24.925781 C 122.503906 25.9375 119.882812 27.011719 117.289062 28.152344 C 114.695312 29.292969 112.132812 30.492188 109.597656 31.757812 C 107.0625 33.023438 104.558594 34.351562 102.089844 35.738281 C 99.621094 37.128906 97.1875 38.578125 94.789062 40.085938 C 92.390625 41.59375 90.03125 43.15625 87.710938 44.78125 C 85.386719 46.40625 83.109375 48.085938 80.867188 49.820312 C 78.628906 51.554688 76.433594 53.34375 74.285156 55.1875 C 72.132812 57.03125 70.027344 58.925781 67.96875 60.875 C 65.910156 62.820312 63.902344 64.816406 61.941406 66.863281 C 59.984375 68.90625 58.074219 71 56.214844 73.136719 C 54.359375 75.277344 52.554688 77.460938 50.804688 79.6875 C 49.054688 81.917969 47.359375 84.183594 45.722656 86.496094 C 44.082031 88.808594 42.5 91.15625 40.976562 93.546875 C 39.453125 95.933594 37.992188 98.359375 36.585938 100.816406 C 35.183594 103.277344 33.839844 105.773438 32.558594 108.296875 C 31.273438 110.824219 30.054688 113.378906 28.898438 115.964844 C 27.742188 118.550781 26.652344 121.164062 25.621094 123.804688 C 24.59375 126.445312 23.632812 129.109375 22.734375 131.796875 C 21.835938 134.484375 21.007812 137.191406 20.242188 139.917969 C 19.476562 142.644531 18.78125 145.390625 18.148438 148.152344 C 17.519531 150.914062 16.957031 153.691406 16.464844 156.480469 C 15.972656 159.269531 15.546875 162.070312 15.191406 164.878906 C 14.835938 167.691406 14.546875 170.507812 14.332031 173.332031 C 14.113281 176.15625 13.964844 178.984375 13.886719 181.816406 C 13.808594 184.648438 13.796875 187.480469 13.859375 190.3125 C 13.917969 193.144531 14.046875 195.976562 14.246094 198.800781 C 14.445312 201.625 14.714844 204.445312 15.054688 207.257812 C 15.390625 210.070312 15.796875 212.875 16.273438 215.667969 C 16.746094 218.460938 17.292969 221.238281 17.902344 224.003906 C 18.515625 226.769531 19.195312 229.519531 19.941406 232.253906 C 20.6875 234.984375 21.5 237.699219 22.378906 240.390625 C 23.261719 243.085938 24.207031 245.753906 25.214844 248.402344 C 26.226562 251.046875 27.300781 253.667969 28.441406 256.261719 C 29.582031 258.855469 30.785156 261.417969 32.050781 263.953125 C 33.316406 266.488281 34.640625 268.988281 36.03125 271.457031 C 37.417969 273.929688 38.867188 276.363281 40.375 278.761719 C 41.882812 281.160156 43.449219 283.519531 45.070312 285.839844 C 46.695312 288.160156 48.375 290.441406 50.109375 292.679688 C 51.847656 294.917969 53.636719 297.113281 55.480469 299.265625 C 57.320312 301.417969 59.21875 303.523438 61.164062 305.578125 C 63.109375 307.636719 65.105469 309.648438 67.152344 311.605469 C 69.195312 313.566406 71.289062 315.476562 73.429688 317.332031 C 75.566406 319.191406 77.75 320.996094 79.976562 322.746094 C 82.207031 324.496094 84.476562 326.1875 86.785156 327.828125 C 89.097656 329.464844 91.445312 331.046875 93.835938 332.570312 C 96.222656 334.09375 98.648438 335.558594 101.109375 336.964844 C 103.570312 338.367188 106.0625 339.710938 108.589844 340.992188 C 111.113281 342.273438 113.671875 343.492188 116.257812 344.648438 C 118.84375 345.804688 121.457031 346.898438 124.09375 347.925781 C 126.734375 348.957031 129.398438 349.917969 132.085938 350.816406 C 134.773438 351.710938 137.480469 352.542969 140.207031 353.308594 C 142.9375 354.074219 145.679688 354.769531 148.441406 355.398438 C 151.203125 356.027344 153.980469 356.589844 156.769531 357.085938 C 159.558594 357.578125 162.359375 358.003906 165.171875 358.359375 C 167.980469 358.714844 170.796875 359 173.621094 359.21875 C 176.445312 359.4375 179.277344 359.585938 182.105469 359.664062 C 184.9375 359.742188 187.769531 359.75 190.601562 359.691406 C 193.4375 359.628906 196.265625 359.5 199.089844 359.300781 C 201.917969 359.101562 204.734375 358.835938 207.546875 358.496094 C 210.363281 358.160156 213.164062 357.753906 215.957031 357.277344 C 218.75 356.800781 221.527344 356.257812 224.296875 355.648438 C 227.0625 355.035156 229.8125 354.355469 232.542969 353.609375 C 235.277344 352.863281 237.988281 352.050781 240.683594 351.167969 C 243.375 350.289062 246.042969 349.34375 248.691406 348.332031 C 251.335938 347.324219 253.957031 346.246094 256.550781 345.109375 C 259.144531 343.96875 261.707031 342.765625 264.242188 341.5 C 266.777344 340.234375 269.28125 338.90625 271.75 337.519531 C 274.21875 336.132812 276.652344 334.683594 279.050781 333.175781 C 281.449219 331.667969 283.808594 330.101562 286.128906 328.476562 C 288.453125 326.855469 290.730469 325.175781 292.972656 323.441406 C 295.210938 321.703125 297.40625 319.914062 299.554688 318.070312 C 301.707031 316.226562 303.8125 314.332031 305.871094 312.386719 C 307.929688 310.4375 309.9375 308.441406 311.898438 306.398438 C 313.855469 304.351562 315.765625 302.261719 317.625 300.121094 C 319.480469 297.980469 321.285156 295.796875 323.035156 293.570312 C 324.785156 291.34375 326.480469 289.074219 328.117188 286.761719 C 329.757812 284.453125 331.335938 282.101562 332.859375 279.714844 C 334.382812 277.328125 335.847656 274.902344 337.253906 272.441406 C 338.65625 269.980469 340 267.488281 341.28125 264.960938 C 342.5625 262.433594 343.785156 259.878906 344.941406 257.292969 C 346.097656 254.707031 347.1875 252.09375 348.21875 249.453125 C 349.246094 246.816406 350.207031 244.152344 351.105469 241.464844 C 352.003906 238.777344 352.832031 236.070312 353.597656 233.34375 C 354.363281 230.613281 355.058594 227.867188 355.691406 225.105469 C 356.320312 222.34375 356.878906 219.570312 357.375 216.78125 C 357.867188 213.988281 358.292969 211.191406 358.648438 208.378906 C 359.003906 205.570312 359.292969 202.75 359.507812 199.925781 C 359.726562 197.101562 359.875 194.273438 359.953125 191.441406 L 360.132812 185.054688 L 372.90625 185.410156 L 372.730469 191.796875 C 372.644531 194.835938 372.480469 197.875 372.242188 200.90625 C 372.007812 203.9375 371.695312 206.960938 371.3125 209.980469 C 370.925781 212.996094 370.46875 216 369.9375 218.996094 C 369.402344 221.988281 368.796875 224.96875 368.121094 227.933594 C 367.441406 230.898438 366.691406 233.84375 365.867188 236.773438 C 365.046875 239.699219 364.152344 242.605469 363.1875 245.492188 C 362.222656 248.375 361.1875 251.234375 360.082031 254.066406 C 358.976562 256.898438 357.800781 259.703125 356.558594 262.480469 C 355.316406 265.253906 354.003906 268 352.628906 270.710938 C 351.25 273.421875 349.808594 276.097656 348.296875 278.738281 C 346.789062 281.378906 345.21875 283.980469 343.582031 286.542969 C 341.945312 289.109375 340.246094 291.628906 338.488281 294.109375 C 336.726562 296.589844 334.90625 299.027344 333.027344 301.417969 C 331.148438 303.808594 329.210938 306.152344 327.21875 308.449219 C 325.222656 310.746094 323.175781 312.992188 321.070312 315.1875 C 318.964844 317.382812 316.808594 319.523438 314.597656 321.613281 C 312.390625 323.703125 310.128906 325.738281 307.820312 327.71875 C 305.511719 329.695312 303.15625 331.617188 300.753906 333.480469 C 298.347656 335.34375 295.902344 337.148438 293.410156 338.890625 C 290.917969 340.636719 288.382812 342.316406 285.808594 343.9375 C 283.234375 345.554688 280.625 347.109375 277.972656 348.601562 C 275.320312 350.09375 272.636719 351.519531 269.917969 352.878906 C 267.195312 354.238281 264.445312 355.53125 261.660156 356.753906 C 258.875 357.980469 256.0625 359.136719 253.222656 360.222656 C 250.382812 361.308594 247.519531 362.324219 244.628906 363.269531 C 241.738281 364.21875 238.824219 365.09375 235.890625 365.894531 C 232.957031 366.699219 230.007812 367.429688 227.039062 368.089844 C 224.070312 368.75 221.085938 369.332031 218.089844 369.847656 C 215.089844 370.359375 212.082031 370.796875 209.0625 371.164062 C 206.042969 371.527344 203.015625 371.816406 199.984375 372.035156 C 196.949219 372.25 193.914062 372.394531 190.871094 372.460938 C 187.832031 372.527344 184.792969 372.523438 181.75 372.441406 Z M 181.75 372.441406 " fill-opacity="1" fill-rule="nonzero"/></g></g></g><g fill="#af8d1e" fill-opacity="1"><g transform="translate(71.997583, 293.561828)"><g><path d="M 58.703125 3.265625 C 49.578125 3.265625 41.640625 1.902344 34.890625 -0.8125 C 28.148438 -3.53125 22.390625 -6.519531 17.609375 -9.78125 C 11.953125 -13.695312 7.171875 -18.046875 3.265625 -22.828125 L 19.5625 -39.140625 C 22.175781 -35.441406 25.441406 -32.179688 29.359375 -29.359375 C 32.617188 -26.960938 36.691406 -24.726562 41.578125 -22.65625 C 46.472656 -20.59375 52.179688 -19.5625 58.703125 -19.5625 C 72.617188 -19.5625 83.707031 -23.75 91.96875 -32.125 C 100.238281 -40.5 104.375 -52.078125 104.375 -66.859375 L 104.375 -228.3125 L 128.828125 -228.3125 L 128.828125 -66.859375 C 128.828125 -56.640625 127.085938 -47.234375 123.609375 -38.640625 C 120.128906 -30.054688 115.289062 -22.664062 109.09375 -16.46875 C 102.894531 -10.269531 95.5 -5.429688 86.90625 -1.953125 C 78.320312 1.523438 68.921875 3.265625 58.703125 3.265625 Z M 58.703125 3.265625 "/></g></g></g><g clip-path="url(#5d67e08671)"><g transform="matrix(1, 0, 0, 1, 175, 1)"><g clip-path="url(#7ed59ff478)"><g clip-path="url(#b7705b45f1)"><path fill="#af8d1e" d="M 0.585938 0.175781 L 25.859375 0.175781 L 25.859375 113.71875 L 0.585938 113.71875 Z M 0.585938 0.175781 " fill-opacity="1" fill-rule="nonzero"/></g></g></g></g><g clip-path="url(#823838acbb)"><g transform="matrix(1, 0, 0, 1, 276, 184)"><g clip-path="url(#0cf27eb1fd)"><g clip-path="url(#2d9a7522b9)"><path fill="#af8d1e" d="M 97.257812 0.730469 L 97.257812 13.351562 L 0.65625 13.351562 L 0.65625 0.730469 Z M 97.257812 0.730469 " fill-opacity="1" fill-rule="nonzero"/></g></g></g></g></svg>